<svg xmlns="http://www.w3.org/2000/svg" xmlns:xlink="http://www.w3.org/1999/xlink" viewBox="0 0 113.08 115.39"><defs><style>.cls-1{fill:#f7d8ba;}.cls-2,.cls-7,.cls-9{fill:none;}.cls-3{clip-path:url(#clip-path);}.cls-4{fill:#d46919;}.cls-5{fill:#fff;}.cls-6{fill:#e0a78f;}.cls-7{stroke:#b9635e;}.cls-7,.cls-9{stroke-linecap:round;stroke-linejoin:round;stroke-width:0.66px;}.cls-8{fill:#1e0b02;}.cls-9{stroke:#000;}.cls-10{clip-path:url(#clip-path-2);}.cls-11{fill:#ef758d;stroke:#ef758d;stroke-miterlimit:10;}</style><clipPath id="clip-path"><circle class="cls-1" cx="56.54" cy="56.54" r="56.54" transform="translate(-11.07 99.23) rotate(-77.27)"/></clipPath><clipPath id="clip-path-2"><path class="cls-2" d="M98.7,90.44c-1.76-4.74-7-10.9-17.07-12.89l-.34.24C68.8,86.88,52,86.47,39.38,77.53l.63-.21C29.17,79,23.57,85.51,21.74,90.44L17.5,109.76h85.43Z"/></clipPath></defs><g id="Layer_2" data-name="Layer 2"><g id="OBJECTS"><circle class="cls-1" cx="56.54" cy="56.54" r="56.54" transform="translate(-11.07 99.23) rotate(-77.27)"/><g class="cls-3"><path class="cls-4" d="M39.66,27.94S37.11,42.5,19.58,53.08C.89,64.36,11.54,100.2,44.27,101c35.55.85,53.62-43.56,33.07-79.84Z"/><path class="cls-5" d="M98.7,90.3c-1.83-4.88-7.43-11.29-18.27-13l-20.21-4L40,77.31c-10.84,1.7-16.44,8.11-18.27,13L17.5,109.42H36.05L37.4,111l22.5,4.43,23.13-6h19.9Z"/><path class="cls-6" d="M39.38,77.52,61.3,73.07l20.44,4.38-.45.33c-12.49,9-29.31,8.58-41.91-.26Z"/><path class="cls-6" d="M49.29,45.1a5.91,5.91,0,1,1-6.14-5.69A5.93,5.93,0,0,1,49.29,45.1Z"/><path class="cls-7" d="M40,44.53s2.34-1.17,4.63,2.89"/><path class="cls-6" d="M70.88,45a5.92,5.92,0,1,0,5.86-6A5.91,5.91,0,0,0,70.88,45Z"/><path class="cls-7" d="M80.12,44S77.73,43,75.65,47.14"/><ellipse class="cls-4" cx="59.77" cy="30.77" rx="20.35" ry="18.99" transform="translate(-0.31 0.62) rotate(-0.59)"/><path class="cls-6" d="M65.92,56.9a14.2,14.2,0,0,1-4.86,3c-2.33.6-4.62-1.15-4.65-1.17l-2.75-2-.89,19.47.3.32c4,4.22,9.72,4.22,13.67,0l.58-.62Z"/><path class="cls-8" d="M51.79,54.14s3.4,11.34,9.26,11.17c4.81-.14,6-10.76,6-10.76Z"/><path class="cls-6" d="M75.94,33.93A67.82,67.82,0,0,1,74.28,49.8c-.88,3.85-3.46,6.57-7.14,8.78l-.67.41a13.4,13.4,0,0,1-13,.33h0c-4-2.15-6.91-5-7.84-9.14a98.81,98.81,0,0,1-2-15.75s-1.53-17.3,15.89-17.25S75.94,33.93,75.94,33.93Z"/><polyline class="cls-7" points="58.48 42.96 58.51 45.46 60.22 45.44"/><path class="cls-4" d="M46.56,34.09l9.2-.93s-.85-2.37-4.57-1.95S46.56,34.09,46.56,34.09Z"/><path class="cls-4" d="M71.88,33.83l-9.22-.74s.8-2.39,4.53-2S71.88,33.83,71.88,33.83Z"/><path class="cls-8" d="M53.77,39.62a1.41,1.41,0,1,1-1.42-1.4A1.41,1.41,0,0,1,53.77,39.62Z"/><path class="cls-8" d="M67.6,39.47a1.41,1.41,0,1,1-1.42-1.39A1.42,1.42,0,0,1,67.6,39.47Z"/><path class="cls-9" d="M54.23,49.05s3.94,2.09,10.23-.11"/><path class="cls-4" d="M75.9,30S50.27,31.22,51.2,16.18C51.2,16.18,73.48,9.61,75.9,30Z"/><path class="cls-4" d="M43.22,30.34s9-3.86,8.88-13.09C52.1,17.25,42.87,18.41,43.22,30.34Z"/><g class="cls-10"><line class="cls-11" x1="15.05" y1="79.66" x2="104.76" y2="79.66"/><line class="cls-11" x1="15.05" y1="84.34" x2="104.76" y2="84.34"/><line class="cls-11" x1="15.05" y1="89.03" x2="104.76" y2="89.03"/><line class="cls-11" x1="15.05" y1="93.71" x2="104.76" y2="93.71"/><line class="cls-11" x1="15.05" y1="98.39" x2="104.76" y2="98.39"/><line class="cls-11" x1="15.05" y1="103.08" x2="104.76" y2="103.08"/><line class="cls-11" x1="15.05" y1="107.76" x2="104.76" y2="107.76"/><line class="cls-11" x1="15.05" y1="112.45" x2="104.76" y2="112.45"/></g></g></g></g></svg>